<mxfile host="app.diagrams.net" modified="2024-06-03T12:34:52.210Z" agent="Mozilla/5.0 (Windows NT 10.0; Win64; x64) AppleWebKit/537.36 (KHTML, like Gecko) Chrome/121.0.0.0 Safari/537.36" etag="6j84XyyJvTZuApOzi0md" version="24.4.13" type="google">
  <diagram name="PÃ¡gina-1" id="VuEnpg6Bu1WioC_4Fvcf">
    <mxGraphModel dx="2261" dy="1951" grid="1" gridSize="10" guides="1" tooltips="1" connect="1" arrows="1" fold="1" page="1" pageScale="1" pageWidth="827" pageHeight="1169" math="0" shadow="0">
      <root>
        <mxCell id="0" />
        <mxCell id="1" parent="0" />
        <mxCell id="CZ2TSmDoHZK354zX8ozz-18" value="" style="verticalLabelPosition=bottom;verticalAlign=top;html=1;shape=mxgraph.basic.patternFillRect;fillStyle=diag;step=5;fillStrokeWidth=0.2;fillStrokeColor=#dddddd;fillColor=#ffcccc;strokeColor=#36393d;" parent="1" vertex="1">
          <mxGeometry x="360" y="-260" width="300" height="550" as="geometry" />
        </mxCell>
        <mxCell id="CZ2TSmDoHZK354zX8ozz-19" value="" style="verticalLabelPosition=bottom;verticalAlign=top;html=1;shape=mxgraph.basic.rect;fillColor2=none;strokeWidth=1;size=20;indent=5;" parent="1" vertex="1">
          <mxGeometry x="400" width="220" height="30" as="geometry" />
        </mxCell>
        <mxCell id="CZ2TSmDoHZK354zX8ozz-20" value="" style="verticalLabelPosition=bottom;verticalAlign=top;html=1;shape=mxgraph.basic.rect;fillColor2=none;strokeWidth=1;size=20;indent=5;" parent="1" vertex="1">
          <mxGeometry x="400" y="60" width="220" height="30" as="geometry" />
        </mxCell>
        <mxCell id="CZ2TSmDoHZK354zX8ozz-21" value="" style="verticalLabelPosition=bottom;verticalAlign=top;html=1;shape=mxgraph.basic.patternFillRect;fillStyle=diag;step=5;fillStrokeWidth=0.2;fillStrokeColor=#dddddd;fillColor=#e1d5e7;strokeColor=#9673a6;" parent="1" vertex="1">
          <mxGeometry x="450" y="180" width="120" height="60" as="geometry" />
        </mxCell>
        <mxCell id="CZ2TSmDoHZK354zX8ozz-23" value="cadastrar" style="text;strokeColor=none;fillColor=none;html=1;fontSize=24;fontStyle=1;verticalAlign=middle;align=center;" parent="1" vertex="1">
          <mxGeometry x="460" y="-120" width="100" height="40" as="geometry" />
        </mxCell>
        <mxCell id="CZ2TSmDoHZK354zX8ozz-24" value="" style="verticalLabelPosition=bottom;verticalAlign=top;html=1;shape=mxgraph.basic.rect;fillColor2=none;strokeWidth=1;size=20;indent=5;fillColor=#e1d5e7;strokeColor=#9673a6;" parent="1" vertex="1">
          <mxGeometry x="400" y="-10" width="220" height="10" as="geometry" />
        </mxCell>
        <mxCell id="CZ2TSmDoHZK354zX8ozz-25" value="nome" style="text;strokeColor=none;fillColor=none;html=1;fontSize=24;fontStyle=1;verticalAlign=middle;align=center;" parent="1" vertex="1">
          <mxGeometry x="430" y="10" width="20" height="10" as="geometry" />
        </mxCell>
        <mxCell id="CZ2TSmDoHZK354zX8ozz-26" value="senha" style="text;strokeColor=none;fillColor=none;html=1;fontSize=24;fontStyle=1;verticalAlign=middle;align=center;" parent="1" vertex="1">
          <mxGeometry x="430" y="70" width="20" height="10" as="geometry" />
        </mxCell>
        <mxCell id="CZ2TSmDoHZK354zX8ozz-27" value="" style="verticalLabelPosition=bottom;verticalAlign=top;html=1;shape=mxgraph.basic.rect;fillColor2=none;strokeWidth=1;size=20;indent=5;fillColor=#e1d5e7;strokeColor=#9673a6;" parent="1" vertex="1">
          <mxGeometry x="400" y="50" width="220" height="10" as="geometry" />
        </mxCell>
        <mxCell id="CZ2TSmDoHZK354zX8ozz-28" value="entrar" style="text;html=1;fontSize=24;fontStyle=1;verticalAlign=middle;align=center;rotation=0;" parent="1" vertex="1">
          <mxGeometry x="460" y="190" width="100" height="40" as="geometry" />
        </mxCell>
        <mxCell id="CZ2TSmDoHZK354zX8ozz-29" value="" style="verticalLabelPosition=bottom;verticalAlign=top;html=1;shape=mxgraph.basic.rect;fillColor2=none;strokeWidth=1;size=20;indent=5;" parent="1" vertex="1">
          <mxGeometry x="400" y="120" width="220" height="30" as="geometry" />
        </mxCell>
        <mxCell id="CZ2TSmDoHZK354zX8ozz-31" value="" style="verticalLabelPosition=bottom;verticalAlign=top;html=1;shape=mxgraph.basic.rect;fillColor2=none;strokeWidth=1;size=20;indent=5;fillColor=#e1d5e7;strokeColor=#9673a6;" parent="1" vertex="1">
          <mxGeometry x="400" y="110" width="220" height="10" as="geometry" />
        </mxCell>
        <mxCell id="CZ2TSmDoHZK354zX8ozz-32" value="confirmar senha" style="text;strokeColor=none;fillColor=none;html=1;fontSize=24;fontStyle=1;verticalAlign=middle;align=center;" parent="1" vertex="1">
          <mxGeometry x="490" y="130" width="20" height="10" as="geometry" />
        </mxCell>
        <mxCell id="CZ2TSmDoHZK354zX8ozz-33" value="" style="verticalLabelPosition=bottom;verticalAlign=top;html=1;shape=mxgraph.basic.patternFillRect;fillStyle=diag;step=5;fillStrokeWidth=0.2;fillStrokeColor=#dddddd;" parent="1" vertex="1">
          <mxGeometry x="740" y="-260" width="300" height="550" as="geometry" />
        </mxCell>
        <mxCell id="CZ2TSmDoHZK354zX8ozz-34" value="" style="verticalLabelPosition=bottom;verticalAlign=top;html=1;shape=mxgraph.basic.rect;fillColor2=none;strokeWidth=1;size=20;indent=5;" parent="1" vertex="1">
          <mxGeometry x="780" width="220" height="30" as="geometry" />
        </mxCell>
        <mxCell id="CZ2TSmDoHZK354zX8ozz-35" value="" style="verticalLabelPosition=bottom;verticalAlign=top;html=1;shape=mxgraph.basic.rect;fillColor2=none;strokeWidth=1;size=20;indent=5;" parent="1" vertex="1">
          <mxGeometry x="780" y="60" width="220" height="30" as="geometry" />
        </mxCell>
        <mxCell id="CZ2TSmDoHZK354zX8ozz-36" value="" style="verticalLabelPosition=bottom;verticalAlign=top;html=1;shape=mxgraph.basic.patternFillRect;fillStyle=diag;step=5;fillStrokeWidth=0.2;fillStrokeColor=#dddddd;fillColor=#f8cecc;strokeColor=#b85450;" parent="1" vertex="1">
          <mxGeometry x="830" y="180" width="120" height="60" as="geometry" />
        </mxCell>
        <mxCell id="CZ2TSmDoHZK354zX8ozz-37" value="recuperar senha&amp;nbsp;" style="text;strokeColor=none;fillColor=none;html=1;fontSize=24;fontStyle=1;verticalAlign=middle;align=center;" parent="1" vertex="1">
          <mxGeometry x="840" y="-120" width="100" height="40" as="geometry" />
        </mxCell>
        <mxCell id="CZ2TSmDoHZK354zX8ozz-38" value="" style="verticalLabelPosition=bottom;verticalAlign=top;html=1;shape=mxgraph.basic.rect;fillColor2=none;strokeWidth=1;size=20;indent=5;fillColor=#ffcccc;strokeColor=#36393d;" parent="1" vertex="1">
          <mxGeometry x="780" y="-10" width="220" height="10" as="geometry" />
        </mxCell>
        <mxCell id="CZ2TSmDoHZK354zX8ozz-39" value="nome" style="text;strokeColor=none;fillColor=none;html=1;fontSize=24;fontStyle=1;verticalAlign=middle;align=center;" parent="1" vertex="1">
          <mxGeometry x="810" y="10" width="20" height="10" as="geometry" />
        </mxCell>
        <mxCell id="CZ2TSmDoHZK354zX8ozz-40" value="nova senha" style="text;strokeColor=none;fillColor=none;html=1;fontSize=24;fontStyle=1;verticalAlign=middle;align=center;" parent="1" vertex="1">
          <mxGeometry x="840" y="70" width="20" height="10" as="geometry" />
        </mxCell>
        <mxCell id="CZ2TSmDoHZK354zX8ozz-41" value="" style="verticalLabelPosition=bottom;verticalAlign=top;html=1;shape=mxgraph.basic.rect;fillColor2=none;strokeWidth=1;size=20;indent=5;fillColor=#f8cecc;strokeColor=#b85450;" parent="1" vertex="1">
          <mxGeometry x="780" y="50" width="220" height="10" as="geometry" />
        </mxCell>
        <mxCell id="CZ2TSmDoHZK354zX8ozz-42" value="entrar" style="text;html=1;fontSize=24;fontStyle=1;verticalAlign=middle;align=center;" parent="1" vertex="1">
          <mxGeometry x="840" y="190" width="100" height="40" as="geometry" />
        </mxCell>
        <mxCell id="CZ2TSmDoHZK354zX8ozz-43" value="" style="verticalLabelPosition=bottom;verticalAlign=top;html=1;shape=mxgraph.basic.rect;fillColor2=none;strokeWidth=1;size=20;indent=5;" parent="1" vertex="1">
          <mxGeometry x="780" y="120" width="220" height="30" as="geometry" />
        </mxCell>
        <mxCell id="CZ2TSmDoHZK354zX8ozz-44" value="" style="verticalLabelPosition=bottom;verticalAlign=top;html=1;shape=mxgraph.basic.rect;fillColor2=none;strokeWidth=1;size=20;indent=5;fillColor=#f8cecc;strokeColor=#b85450;" parent="1" vertex="1">
          <mxGeometry x="780" y="110" width="220" height="10" as="geometry" />
        </mxCell>
        <mxCell id="CZ2TSmDoHZK354zX8ozz-45" value="confirmar senha" style="text;strokeColor=none;fillColor=none;html=1;fontSize=24;fontStyle=1;verticalAlign=middle;align=center;" parent="1" vertex="1">
          <mxGeometry x="870" y="130" width="20" height="10" as="geometry" />
        </mxCell>
        <mxCell id="CZ2TSmDoHZK354zX8ozz-48" value="" style="verticalLabelPosition=bottom;verticalAlign=top;html=1;shape=mxgraph.basic.patternFillRect;fillStyle=diag;step=5;fillStrokeWidth=0.2;fillStrokeColor=#dddddd;fillColor=#e1d5e7;strokeColor=#9673a6;" parent="1" vertex="1">
          <mxGeometry x="-20" y="-230" width="300" height="550" as="geometry" />
        </mxCell>
        <mxCell id="CZ2TSmDoHZK354zX8ozz-49" value="seja bem vindo" style="text;strokeColor=none;fillColor=none;html=1;fontSize=24;fontStyle=1;verticalAlign=middle;align=center;" parent="1" vertex="1">
          <mxGeometry x="80" y="-100" width="100" height="40" as="geometry" />
        </mxCell>
        <mxCell id="CZ2TSmDoHZK354zX8ozz-50" value="" style="verticalLabelPosition=bottom;verticalAlign=top;html=1;shape=mxgraph.basic.rect;fillColor2=none;strokeWidth=1;size=20;indent=5;fillColor=#f8cecc;strokeColor=#b85450;" parent="1" vertex="1">
          <mxGeometry x="10" y="20" width="220" height="30" as="geometry" />
        </mxCell>
        <mxCell id="CZ2TSmDoHZK354zX8ozz-51" value="" style="verticalLabelPosition=bottom;verticalAlign=top;html=1;shape=mxgraph.basic.rect;fillColor2=none;strokeWidth=1;size=20;indent=5;fillColor=#f8cecc;strokeColor=default;" parent="1" vertex="1">
          <mxGeometry x="10" y="80" width="220" height="30" as="geometry" />
        </mxCell>
        <mxCell id="CZ2TSmDoHZK354zX8ozz-52" value="" style="verticalLabelPosition=bottom;verticalAlign=top;html=1;shape=mxgraph.basic.rect;fillColor2=none;strokeWidth=1;size=20;indent=5;fillColor=#f8cecc;strokeColor=#b85450;" parent="1" vertex="1">
          <mxGeometry x="20" y="210" width="220" height="30" as="geometry" />
        </mxCell>
        <mxCell id="CZ2TSmDoHZK354zX8ozz-57" value="" style="verticalLabelPosition=bottom;verticalAlign=top;html=1;shape=mxgraph.basic.rect;fillColor2=none;strokeWidth=1;size=20;indent=5;" parent="1" vertex="1">
          <mxGeometry x="30" y="30" width="220" height="30" as="geometry" />
        </mxCell>
        <mxCell id="CZ2TSmDoHZK354zX8ozz-58" value="entar na conta" style="text;strokeColor=none;fillColor=none;html=1;fontSize=24;fontStyle=1;verticalAlign=middle;align=center;" parent="1" vertex="1">
          <mxGeometry x="90" y="25" width="100" height="40" as="geometry" />
        </mxCell>
        <mxCell id="CZ2TSmDoHZK354zX8ozz-59" value="" style="verticalLabelPosition=bottom;verticalAlign=top;html=1;shape=mxgraph.basic.rect;fillColor2=none;strokeWidth=1;size=20;indent=5;" parent="1" vertex="1">
          <mxGeometry x="30" y="220" width="220" height="30" as="geometry" />
        </mxCell>
        <mxCell id="CZ2TSmDoHZK354zX8ozz-60" value="" style="verticalLabelPosition=bottom;verticalAlign=top;html=1;shape=mxgraph.basic.rect;fillColor2=none;strokeWidth=1;size=20;indent=5;" parent="1" vertex="1">
          <mxGeometry x="30" y="90" width="220" height="30" as="geometry" />
        </mxCell>
        <mxCell id="CZ2TSmDoHZK354zX8ozz-61" value="criar conta&amp;nbsp;" style="text;strokeColor=none;fillColor=none;html=1;fontSize=24;fontStyle=1;verticalAlign=middle;align=center;" parent="1" vertex="1">
          <mxGeometry x="90" y="85" width="100" height="40" as="geometry" />
        </mxCell>
        <mxCell id="CZ2TSmDoHZK354zX8ozz-63" value="navegar por conta?" style="text;strokeColor=none;fillColor=none;html=1;fontSize=24;fontStyle=1;verticalAlign=middle;align=center;" parent="1" vertex="1">
          <mxGeometry x="90" y="215" width="100" height="40" as="geometry" />
        </mxCell>
        <mxCell id="CZ2TSmDoHZK354zX8ozz-64" value="" style="strokeWidth=2;html=1;shape=mxgraph.flowchart.start_1;whiteSpace=wrap;direction=south;" parent="1" vertex="1">
          <mxGeometry x="145" y="165" width="20" height="40" as="geometry" />
        </mxCell>
        <mxCell id="CZ2TSmDoHZK354zX8ozz-65" value="" style="strokeWidth=2;html=1;shape=mxgraph.flowchart.start_1;whiteSpace=wrap;direction=south;" parent="1" vertex="1">
          <mxGeometry x="100" y="165" width="20" height="40" as="geometry" />
        </mxCell>
        <mxCell id="CZ2TSmDoHZK354zX8ozz-67" value="" style="strokeWidth=2;html=1;shape=mxgraph.flowchart.start_1;whiteSpace=wrap;direction=south;" parent="1" vertex="1">
          <mxGeometry x="145" y="175" width="10" height="15" as="geometry" />
        </mxCell>
        <mxCell id="CZ2TSmDoHZK354zX8ozz-68" value="" style="strokeWidth=2;html=1;shape=mxgraph.flowchart.start_1;whiteSpace=wrap;direction=south;" parent="1" vertex="1">
          <mxGeometry x="100" y="175" width="10" height="15" as="geometry" />
        </mxCell>
        <mxCell id="CZ2TSmDoHZK354zX8ozz-74" value="" style="verticalLabelPosition=bottom;verticalAlign=top;html=1;shape=mxgraph.basic.patternFillRect;fillStyle=diag;step=5;fillStrokeWidth=0.2;fillStrokeColor=#dddddd;fillColor=#e1d5e7;strokeColor=#9673a6;" parent="1" vertex="1">
          <mxGeometry x="1150" y="-270" width="300" height="550" as="geometry" />
        </mxCell>
        <mxCell id="CZ2TSmDoHZK354zX8ozz-75" value="" style="shape=loopLimit;whiteSpace=wrap;html=1;direction=west;" parent="1" vertex="1">
          <mxGeometry x="1150" y="-270" width="300" height="60" as="geometry" />
        </mxCell>
        <mxCell id="CZ2TSmDoHZK354zX8ozz-77" value="" style="shape=loopLimit;whiteSpace=wrap;html=1;direction=west;" parent="1" vertex="1">
          <mxGeometry x="1160" y="-270" width="280" height="60" as="geometry" />
        </mxCell>
        <mxCell id="CZ2TSmDoHZK354zX8ozz-78" value="cadastro de prod" style="text;strokeColor=none;fillColor=none;html=1;fontSize=24;fontStyle=1;verticalAlign=middle;align=center;" parent="1" vertex="1">
          <mxGeometry x="1250" y="-260" width="100" height="40" as="geometry" />
        </mxCell>
        <mxCell id="CZ2TSmDoHZK354zX8ozz-80" value="" style="shape=waypoint;sketch=0;fillStyle=solid;size=6;pointerEvents=1;points=[];fillColor=none;resizable=0;rotatable=0;perimeter=centerPerimeter;snapToPoint=1;" parent="1" vertex="1">
          <mxGeometry x="1160" y="-50" width="20" height="20" as="geometry" />
        </mxCell>
        <mxCell id="CZ2TSmDoHZK354zX8ozz-81" value="" style="shape=waypoint;sketch=0;fillStyle=solid;size=6;pointerEvents=1;points=[];fillColor=none;resizable=0;rotatable=0;perimeter=centerPerimeter;snapToPoint=1;" parent="1" vertex="1">
          <mxGeometry x="1160" y="-105" width="20" height="20" as="geometry" />
        </mxCell>
        <mxCell id="CZ2TSmDoHZK354zX8ozz-82" value="" style="shape=waypoint;sketch=0;fillStyle=solid;size=6;pointerEvents=1;points=[];fillColor=none;resizable=0;rotatable=0;perimeter=centerPerimeter;snapToPoint=1;" parent="1" vertex="1">
          <mxGeometry x="1160" y="-150" width="20" height="20" as="geometry" />
        </mxCell>
        <mxCell id="CZ2TSmDoHZK354zX8ozz-85" value="" style="verticalLabelPosition=bottom;verticalAlign=top;html=1;shape=mxgraph.basic.rect;fillColor2=none;strokeWidth=1;size=20;indent=5;" parent="1" vertex="1">
          <mxGeometry x="1190" y="-155" width="220" height="30" as="geometry" />
        </mxCell>
        <mxCell id="CZ2TSmDoHZK354zX8ozz-86" value="" style="verticalLabelPosition=bottom;verticalAlign=top;html=1;shape=mxgraph.basic.rect;fillColor2=none;strokeWidth=1;size=20;indent=5;" parent="1" vertex="1">
          <mxGeometry x="1190" y="-110" width="220" height="30" as="geometry" />
        </mxCell>
        <mxCell id="CZ2TSmDoHZK354zX8ozz-87" value="" style="verticalLabelPosition=bottom;verticalAlign=top;html=1;shape=mxgraph.basic.rect;fillColor2=none;strokeWidth=1;size=20;indent=5;fillColor=#ffcccc;strokeColor=#36393d;" parent="1" vertex="1">
          <mxGeometry x="1190" y="-120" width="220" height="10" as="geometry" />
        </mxCell>
        <mxCell id="CZ2TSmDoHZK354zX8ozz-88" value="" style="verticalLabelPosition=bottom;verticalAlign=top;html=1;shape=mxgraph.basic.rect;fillColor2=none;strokeWidth=1;size=20;indent=5;fillColor=#ffcccc;strokeColor=#36393d;" parent="1" vertex="1">
          <mxGeometry x="1190" y="-165" width="220" height="10" as="geometry" />
        </mxCell>
        <mxCell id="CZ2TSmDoHZK354zX8ozz-89" value="nome" style="text;strokeColor=none;fillColor=none;html=1;fontSize=24;fontStyle=1;verticalAlign=middle;align=center;" parent="1" vertex="1">
          <mxGeometry x="1180" y="-160" width="100" height="40" as="geometry" />
        </mxCell>
        <mxCell id="CZ2TSmDoHZK354zX8ozz-90" value="preÃ§o" style="text;strokeColor=none;fillColor=none;html=1;fontSize=24;fontStyle=1;verticalAlign=middle;align=center;" parent="1" vertex="1">
          <mxGeometry x="1180" y="-115" width="100" height="40" as="geometry" />
        </mxCell>
        <mxCell id="CZ2TSmDoHZK354zX8ozz-91" value="" style="verticalLabelPosition=bottom;verticalAlign=top;html=1;shape=mxgraph.basic.rect;fillColor2=none;strokeWidth=1;size=20;indent=5;fillColor=#f8cecc;strokeColor=#b85450;" parent="1" vertex="1">
          <mxGeometry x="1190" y="-55" width="220" height="30" as="geometry" />
        </mxCell>
        <mxCell id="CZ2TSmDoHZK354zX8ozz-92" value="codigo&amp;nbsp;" style="text;strokeColor=none;fillColor=none;html=1;fontSize=24;fontStyle=1;verticalAlign=middle;align=center;" parent="1" vertex="1">
          <mxGeometry x="1250" y="-60" width="100" height="40" as="geometry" />
        </mxCell>
        <mxCell id="CZ2TSmDoHZK354zX8ozz-93" value="" style="verticalLabelPosition=bottom;verticalAlign=top;html=1;shape=mxgraph.basic.rect;fillColor2=none;strokeWidth=1;size=20;indent=5;fillColor=#f8cecc;strokeColor=#b85450;" parent="1" vertex="1">
          <mxGeometry x="1170" y="10" width="220" height="30" as="geometry" />
        </mxCell>
        <mxCell id="CZ2TSmDoHZK354zX8ozz-94" value="materia prima" style="text;strokeColor=none;fillColor=none;html=1;fontSize=24;fontStyle=1;verticalAlign=middle;align=center;" parent="1" vertex="1">
          <mxGeometry x="1210" y="5" width="100" height="40" as="geometry" />
        </mxCell>
        <mxCell id="CZ2TSmDoHZK354zX8ozz-95" value="" style="shape=ext;double=1;whiteSpace=wrap;html=1;aspect=fixed;" parent="1" vertex="1">
          <mxGeometry x="1400" y="10" width="30" height="30" as="geometry" />
        </mxCell>
        <mxCell id="CZ2TSmDoHZK354zX8ozz-96" value="" style="line;strokeWidth=4;html=1;perimeter=backbonePerimeter;points=[];outlineConnect=0;" parent="1" vertex="1">
          <mxGeometry x="1400" y="20" width="30" height="10" as="geometry" />
        </mxCell>
        <mxCell id="CZ2TSmDoHZK354zX8ozz-97" value="" style="line;strokeWidth=4;direction=south;html=1;perimeter=backbonePerimeter;points=[];outlineConnect=0;" parent="1" vertex="1">
          <mxGeometry x="1410" y="10" width="10" height="30" as="geometry" />
        </mxCell>
        <mxCell id="CZ2TSmDoHZK354zX8ozz-99" value="" style="swimlane;fontStyle=0;childLayout=stackLayout;horizontal=1;startSize=30;fillColor=#f8cecc;horizontalStack=0;resizeParent=1;resizeParentMax=0;resizeLast=0;collapsible=1;marginBottom=0;html=1;strokeColor=#b85450;" parent="1" vertex="1">
          <mxGeometry x="1170" y="60" width="220" height="82" as="geometry" />
        </mxCell>
        <mxCell id="CZ2TSmDoHZK354zX8ozz-100" value="Item 1" style="text;strokeColor=none;fillColor=none;align=left;verticalAlign=top;spacingLeft=4;spacingRight=4;overflow=hidden;rotatable=0;points=[[0,0.5],[1,0.5]];portConstraint=eastwest;whiteSpace=wrap;html=1;" parent="CZ2TSmDoHZK354zX8ozz-99" vertex="1">
          <mxGeometry y="30" width="220" height="26" as="geometry" />
        </mxCell>
        <mxCell id="CZ2TSmDoHZK354zX8ozz-101" value="Item 2" style="text;align=left;verticalAlign=top;spacingLeft=4;spacingRight=4;overflow=hidden;rotatable=0;points=[[0,0.5],[1,0.5]];portConstraint=eastwest;whiteSpace=wrap;html=1;" parent="CZ2TSmDoHZK354zX8ozz-99" vertex="1">
          <mxGeometry y="56" width="220" height="26" as="geometry" />
        </mxCell>
        <mxCell id="CZ2TSmDoHZK354zX8ozz-114" style="edgeStyle=orthogonalEdgeStyle;rounded=0;orthogonalLoop=1;jettySize=auto;html=1;entryX=0;entryY=0.5;entryDx=0;entryDy=0;" parent="1" source="CZ2TSmDoHZK354zX8ozz-105" target="CZ2TSmDoHZK354zX8ozz-109" edge="1">
          <mxGeometry relative="1" as="geometry" />
        </mxCell>
        <mxCell id="CZ2TSmDoHZK354zX8ozz-105" value="compra&amp;nbsp;" style="rounded=0;whiteSpace=wrap;html=1;" parent="1" vertex="1">
          <mxGeometry x="270" y="560" width="120" height="60" as="geometry" />
        </mxCell>
        <mxCell id="CZ2TSmDoHZK354zX8ozz-139" style="edgeStyle=orthogonalEdgeStyle;rounded=0;orthogonalLoop=1;jettySize=auto;html=1;" parent="1" source="CZ2TSmDoHZK354zX8ozz-106" target="CZ2TSmDoHZK354zX8ozz-136" edge="1">
          <mxGeometry relative="1" as="geometry" />
        </mxCell>
        <mxCell id="CZ2TSmDoHZK354zX8ozz-106" value="venda" style="rounded=0;whiteSpace=wrap;html=1;" parent="1" vertex="1">
          <mxGeometry x="770" y="660" width="120" height="60" as="geometry" />
        </mxCell>
        <mxCell id="CZ2TSmDoHZK354zX8ozz-113" style="edgeStyle=orthogonalEdgeStyle;rounded=0;orthogonalLoop=1;jettySize=auto;html=1;entryX=0;entryY=0.5;entryDx=0;entryDy=0;" parent="1" source="CZ2TSmDoHZK354zX8ozz-107" target="CZ2TSmDoHZK354zX8ozz-105" edge="1">
          <mxGeometry relative="1" as="geometry" />
        </mxCell>
        <mxCell id="CZ2TSmDoHZK354zX8ozz-107" value="cliente" style="rounded=0;whiteSpace=wrap;html=1;" parent="1" vertex="1">
          <mxGeometry x="90" y="560" width="120" height="60" as="geometry" />
        </mxCell>
        <mxCell id="CZ2TSmDoHZK354zX8ozz-108" value="produtor" style="rounded=0;whiteSpace=wrap;html=1;" parent="1" vertex="1">
          <mxGeometry x="90" y="660" width="120" height="60" as="geometry" />
        </mxCell>
        <mxCell id="CZ2TSmDoHZK354zX8ozz-130" style="edgeStyle=orthogonalEdgeStyle;rounded=0;orthogonalLoop=1;jettySize=auto;html=1;entryX=0;entryY=0.5;entryDx=0;entryDy=0;" parent="1" source="CZ2TSmDoHZK354zX8ozz-109" target="CZ2TSmDoHZK354zX8ozz-127" edge="1">
          <mxGeometry relative="1" as="geometry" />
        </mxCell>
        <mxCell id="CZ2TSmDoHZK354zX8ozz-109" value="produto disponivel" style="rounded=0;whiteSpace=wrap;html=1;" parent="1" vertex="1">
          <mxGeometry x="430" y="560" width="120" height="60" as="geometry" />
        </mxCell>
        <mxCell id="CZ2TSmDoHZK354zX8ozz-118" style="edgeStyle=orthogonalEdgeStyle;rounded=0;orthogonalLoop=1;jettySize=auto;html=1;entryX=0.5;entryY=0;entryDx=0;entryDy=0;" parent="1" source="CZ2TSmDoHZK354zX8ozz-111" target="CZ2TSmDoHZK354zX8ozz-112" edge="1">
          <mxGeometry relative="1" as="geometry" />
        </mxCell>
        <mxCell id="CZ2TSmDoHZK354zX8ozz-111" value="materia prima&amp;nbsp;" style="rounded=0;whiteSpace=wrap;html=1;" parent="1" vertex="1">
          <mxGeometry x="430" y="770" width="120" height="60" as="geometry" />
        </mxCell>
        <mxCell id="CZ2TSmDoHZK354zX8ozz-112" value="data de entrega" style="rounded=0;whiteSpace=wrap;html=1;" parent="1" vertex="1">
          <mxGeometry x="430" y="870" width="120" height="60" as="geometry" />
        </mxCell>
        <mxCell id="CZ2TSmDoHZK354zX8ozz-138" style="edgeStyle=orthogonalEdgeStyle;rounded=0;orthogonalLoop=1;jettySize=auto;html=1;" parent="1" source="CZ2TSmDoHZK354zX8ozz-119" target="CZ2TSmDoHZK354zX8ozz-106" edge="1">
          <mxGeometry relative="1" as="geometry" />
        </mxCell>
        <mxCell id="CZ2TSmDoHZK354zX8ozz-119" value="fornecedor&amp;nbsp;" style="rounded=0;whiteSpace=wrap;html=1;" parent="1" vertex="1">
          <mxGeometry x="600" y="660" width="120" height="60" as="geometry" />
        </mxCell>
        <mxCell id="CZ2TSmDoHZK354zX8ozz-122" style="edgeStyle=orthogonalEdgeStyle;rounded=0;orthogonalLoop=1;jettySize=auto;html=1;entryX=0.5;entryY=0;entryDx=0;entryDy=0;" parent="1" source="CZ2TSmDoHZK354zX8ozz-120" target="CZ2TSmDoHZK354zX8ozz-111" edge="1">
          <mxGeometry relative="1" as="geometry" />
        </mxCell>
        <mxCell id="CZ2TSmDoHZK354zX8ozz-123" style="edgeStyle=orthogonalEdgeStyle;rounded=0;orthogonalLoop=1;jettySize=auto;html=1;entryX=0;entryY=0.5;entryDx=0;entryDy=0;" parent="1" source="CZ2TSmDoHZK354zX8ozz-120" target="CZ2TSmDoHZK354zX8ozz-119" edge="1">
          <mxGeometry relative="1" as="geometry" />
        </mxCell>
        <mxCell id="CZ2TSmDoHZK354zX8ozz-120" value="produto disponivel" style="rhombus;whiteSpace=wrap;html=1;" parent="1" vertex="1">
          <mxGeometry x="450" y="650" width="80" height="80" as="geometry" />
        </mxCell>
        <mxCell id="CZ2TSmDoHZK354zX8ozz-133" style="edgeStyle=orthogonalEdgeStyle;rounded=0;orthogonalLoop=1;jettySize=auto;html=1;entryX=0;entryY=0.5;entryDx=0;entryDy=0;" parent="1" source="CZ2TSmDoHZK354zX8ozz-125" target="CZ2TSmDoHZK354zX8ozz-108" edge="1">
          <mxGeometry relative="1" as="geometry" />
        </mxCell>
        <mxCell id="CZ2TSmDoHZK354zX8ozz-125" value="inicio do fluxo dono" style="ellipse;whiteSpace=wrap;html=1;" parent="1" vertex="1">
          <mxGeometry x="-90" y="650" width="120" height="80" as="geometry" />
        </mxCell>
        <mxCell id="CZ2TSmDoHZK354zX8ozz-132" style="edgeStyle=orthogonalEdgeStyle;rounded=0;orthogonalLoop=1;jettySize=auto;html=1;" parent="1" source="CZ2TSmDoHZK354zX8ozz-126" target="CZ2TSmDoHZK354zX8ozz-107" edge="1">
          <mxGeometry relative="1" as="geometry" />
        </mxCell>
        <mxCell id="CZ2TSmDoHZK354zX8ozz-126" value="inicio fluxo consumidor" style="ellipse;whiteSpace=wrap;html=1;" parent="1" vertex="1">
          <mxGeometry x="-90" y="550" width="120" height="80" as="geometry" />
        </mxCell>
        <mxCell id="CZ2TSmDoHZK354zX8ozz-131" style="edgeStyle=orthogonalEdgeStyle;rounded=0;orthogonalLoop=1;jettySize=auto;html=1;" parent="1" source="CZ2TSmDoHZK354zX8ozz-127" target="CZ2TSmDoHZK354zX8ozz-128" edge="1">
          <mxGeometry relative="1" as="geometry" />
        </mxCell>
        <mxCell id="CZ2TSmDoHZK354zX8ozz-127" value="entrega&amp;nbsp;" style="rounded=0;whiteSpace=wrap;html=1;" parent="1" vertex="1">
          <mxGeometry x="600" y="560" width="120" height="60" as="geometry" />
        </mxCell>
        <mxCell id="CZ2TSmDoHZK354zX8ozz-128" value="fedback" style="rounded=0;whiteSpace=wrap;html=1;" parent="1" vertex="1">
          <mxGeometry x="770" y="560" width="120" height="60" as="geometry" />
        </mxCell>
        <mxCell id="CZ2TSmDoHZK354zX8ozz-135" value="" style="edgeStyle=orthogonalEdgeStyle;rounded=0;orthogonalLoop=1;jettySize=auto;html=1;entryX=0;entryY=0.5;entryDx=0;entryDy=0;" parent="1" source="CZ2TSmDoHZK354zX8ozz-108" target="CZ2TSmDoHZK354zX8ozz-134" edge="1">
          <mxGeometry relative="1" as="geometry">
            <mxPoint x="210" y="690" as="sourcePoint" />
            <mxPoint x="970" y="690" as="targetPoint" />
          </mxGeometry>
        </mxCell>
        <mxCell id="CZ2TSmDoHZK354zX8ozz-137" style="edgeStyle=orthogonalEdgeStyle;rounded=0;orthogonalLoop=1;jettySize=auto;html=1;" parent="1" source="CZ2TSmDoHZK354zX8ozz-134" target="CZ2TSmDoHZK354zX8ozz-120" edge="1">
          <mxGeometry relative="1" as="geometry" />
        </mxCell>
        <mxCell id="CZ2TSmDoHZK354zX8ozz-134" value="listagem de produtos&amp;nbsp;" style="rounded=0;whiteSpace=wrap;html=1;" parent="1" vertex="1">
          <mxGeometry x="260" y="660" width="120" height="60" as="geometry" />
        </mxCell>
        <mxCell id="CZ2TSmDoHZK354zX8ozz-136" value="&amp;nbsp;receber feedback" style="rounded=0;whiteSpace=wrap;html=1;" parent="1" vertex="1">
          <mxGeometry x="940" y="660" width="120" height="60" as="geometry" />
        </mxCell>
        <mxCell id="CZ2TSmDoHZK354zX8ozz-163" value="" style="verticalLabelPosition=bottom;verticalAlign=top;html=1;shape=mxgraph.basic.patternFillRect;fillStyle=diag;step=5;fillStrokeWidth=0.2;fillStrokeColor=#dddddd;fillColor=#e1d5e7;strokeColor=#9673a6;" parent="1" vertex="1">
          <mxGeometry x="1520" y="-260" width="300" height="550" as="geometry" />
        </mxCell>
        <mxCell id="CZ2TSmDoHZK354zX8ozz-164" value="" style="shape=loopLimit;whiteSpace=wrap;html=1;direction=west;" parent="1" vertex="1">
          <mxGeometry x="1520" y="-260" width="300" height="60" as="geometry" />
        </mxCell>
        <mxCell id="CZ2TSmDoHZK354zX8ozz-165" value="" style="shape=loopLimit;whiteSpace=wrap;html=1;direction=west;" parent="1" vertex="1">
          <mxGeometry x="1530" y="-260" width="280" height="60" as="geometry" />
        </mxCell>
        <mxCell id="CZ2TSmDoHZK354zX8ozz-166" value="cadastro de fornecedor" style="text;strokeColor=none;fillColor=none;html=1;fontSize=24;fontStyle=1;verticalAlign=middle;align=center;" parent="1" vertex="1">
          <mxGeometry x="1620" y="-250" width="100" height="40" as="geometry" />
        </mxCell>
        <mxCell id="CZ2TSmDoHZK354zX8ozz-167" value="" style="shape=waypoint;sketch=0;fillStyle=solid;size=6;pointerEvents=1;points=[];fillColor=none;resizable=0;rotatable=0;perimeter=centerPerimeter;snapToPoint=1;" parent="1" vertex="1">
          <mxGeometry x="1530" y="-40" width="20" height="20" as="geometry" />
        </mxCell>
        <mxCell id="CZ2TSmDoHZK354zX8ozz-168" value="" style="shape=waypoint;sketch=0;fillStyle=solid;size=6;pointerEvents=1;points=[];fillColor=none;resizable=0;rotatable=0;perimeter=centerPerimeter;snapToPoint=1;" parent="1" vertex="1">
          <mxGeometry x="1530" y="-95" width="20" height="20" as="geometry" />
        </mxCell>
        <mxCell id="CZ2TSmDoHZK354zX8ozz-169" value="" style="shape=waypoint;sketch=0;fillStyle=solid;size=6;pointerEvents=1;points=[];fillColor=none;resizable=0;rotatable=0;perimeter=centerPerimeter;snapToPoint=1;" parent="1" vertex="1">
          <mxGeometry x="1530" y="-140" width="20" height="20" as="geometry" />
        </mxCell>
        <mxCell id="CZ2TSmDoHZK354zX8ozz-170" value="" style="verticalLabelPosition=bottom;verticalAlign=top;html=1;shape=mxgraph.basic.rect;fillColor2=none;strokeWidth=1;size=20;indent=5;" parent="1" vertex="1">
          <mxGeometry x="1560" y="-145" width="220" height="30" as="geometry" />
        </mxCell>
        <mxCell id="CZ2TSmDoHZK354zX8ozz-171" value="" style="verticalLabelPosition=bottom;verticalAlign=top;html=1;shape=mxgraph.basic.rect;fillColor2=none;strokeWidth=1;size=20;indent=5;" parent="1" vertex="1">
          <mxGeometry x="1560" y="-100" width="220" height="30" as="geometry" />
        </mxCell>
        <mxCell id="CZ2TSmDoHZK354zX8ozz-172" value="" style="verticalLabelPosition=bottom;verticalAlign=top;html=1;shape=mxgraph.basic.rect;fillColor2=none;strokeWidth=1;size=20;indent=5;fillColor=#ffcccc;strokeColor=#36393d;" parent="1" vertex="1">
          <mxGeometry x="1560" y="-110" width="220" height="10" as="geometry" />
        </mxCell>
        <mxCell id="CZ2TSmDoHZK354zX8ozz-173" value="" style="verticalLabelPosition=bottom;verticalAlign=top;html=1;shape=mxgraph.basic.rect;fillColor2=none;strokeWidth=1;size=20;indent=5;fillColor=#ffcccc;strokeColor=#36393d;" parent="1" vertex="1">
          <mxGeometry x="1560" y="-155" width="220" height="10" as="geometry" />
        </mxCell>
        <mxCell id="CZ2TSmDoHZK354zX8ozz-174" value="nome" style="text;strokeColor=none;fillColor=none;html=1;fontSize=24;fontStyle=1;verticalAlign=middle;align=center;" parent="1" vertex="1">
          <mxGeometry x="1550" y="-150" width="100" height="40" as="geometry" />
        </mxCell>
        <mxCell id="CZ2TSmDoHZK354zX8ozz-175" value="preÃ§o" style="text;strokeColor=none;fillColor=none;html=1;fontSize=24;fontStyle=1;verticalAlign=middle;align=center;" parent="1" vertex="1">
          <mxGeometry x="1550" y="-105" width="100" height="40" as="geometry" />
        </mxCell>
        <mxCell id="CZ2TSmDoHZK354zX8ozz-176" value="" style="verticalLabelPosition=bottom;verticalAlign=top;html=1;shape=mxgraph.basic.rect;fillColor2=none;strokeWidth=1;size=20;indent=5;fillColor=#f8cecc;strokeColor=#b85450;" parent="1" vertex="1">
          <mxGeometry x="1560" y="-45" width="220" height="30" as="geometry" />
        </mxCell>
        <mxCell id="CZ2TSmDoHZK354zX8ozz-177" value="codigo&amp;nbsp;" style="text;strokeColor=none;fillColor=none;html=1;fontSize=24;fontStyle=1;verticalAlign=middle;align=center;" parent="1" vertex="1">
          <mxGeometry x="1620" y="-50" width="100" height="40" as="geometry" />
        </mxCell>
        <mxCell id="CZ2TSmDoHZK354zX8ozz-178" value="" style="verticalLabelPosition=bottom;verticalAlign=top;html=1;shape=mxgraph.basic.rect;fillColor2=none;strokeWidth=1;size=20;indent=5;fillColor=#f8cecc;strokeColor=#b85450;" parent="1" vertex="1">
          <mxGeometry x="1540" y="20" width="220" height="30" as="geometry" />
        </mxCell>
        <mxCell id="CZ2TSmDoHZK354zX8ozz-179" value="materia prima" style="text;strokeColor=none;fillColor=none;html=1;fontSize=24;fontStyle=1;verticalAlign=middle;align=center;" parent="1" vertex="1">
          <mxGeometry x="1580" y="15" width="100" height="40" as="geometry" />
        </mxCell>
        <mxCell id="CZ2TSmDoHZK354zX8ozz-180" value="" style="shape=ext;double=1;whiteSpace=wrap;html=1;aspect=fixed;" parent="1" vertex="1">
          <mxGeometry x="1770" y="20" width="30" height="30" as="geometry" />
        </mxCell>
        <mxCell id="CZ2TSmDoHZK354zX8ozz-181" value="" style="line;strokeWidth=4;html=1;perimeter=backbonePerimeter;points=[];outlineConnect=0;" parent="1" vertex="1">
          <mxGeometry x="1770" y="30" width="30" height="10" as="geometry" />
        </mxCell>
        <mxCell id="CZ2TSmDoHZK354zX8ozz-182" value="" style="line;strokeWidth=4;direction=south;html=1;perimeter=backbonePerimeter;points=[];outlineConnect=0;" parent="1" vertex="1">
          <mxGeometry x="1780" y="20" width="10" height="30" as="geometry" />
        </mxCell>
        <mxCell id="CZ2TSmDoHZK354zX8ozz-183" value="" style="swimlane;fontStyle=0;childLayout=stackLayout;horizontal=1;startSize=30;fillColor=#f8cecc;horizontalStack=0;resizeParent=1;resizeParentMax=0;resizeLast=0;collapsible=1;marginBottom=0;html=1;strokeColor=#b85450;" parent="1" vertex="1">
          <mxGeometry x="1540" y="70" width="270" height="82" as="geometry" />
        </mxCell>
        <mxCell id="CZ2TSmDoHZK354zX8ozz-184" value="Item 1" style="text;strokeColor=none;fillColor=none;align=left;verticalAlign=top;spacingLeft=4;spacingRight=4;overflow=hidden;rotatable=0;points=[[0,0.5],[1,0.5]];portConstraint=eastwest;whiteSpace=wrap;html=1;" parent="CZ2TSmDoHZK354zX8ozz-183" vertex="1">
          <mxGeometry y="30" width="270" height="26" as="geometry" />
        </mxCell>
        <mxCell id="CZ2TSmDoHZK354zX8ozz-185" value="Item 2" style="text;align=left;verticalAlign=top;spacingLeft=4;spacingRight=4;overflow=hidden;rotatable=0;points=[[0,0.5],[1,0.5]];portConstraint=eastwest;whiteSpace=wrap;html=1;" parent="CZ2TSmDoHZK354zX8ozz-183" vertex="1">
          <mxGeometry y="56" width="270" height="26" as="geometry" />
        </mxCell>
        <mxCell id="CZ2TSmDoHZK354zX8ozz-186" value="" style="verticalLabelPosition=bottom;verticalAlign=top;html=1;shape=mxgraph.basic.x;fillColor=#e51400;fontColor=#ffffff;strokeColor=#B20000;" parent="1" vertex="1">
          <mxGeometry x="1400" y="90" width="20" height="20" as="geometry" />
        </mxCell>
        <mxCell id="CZ2TSmDoHZK354zX8ozz-188" value="" style="verticalLabelPosition=bottom;verticalAlign=top;html=1;shape=mxgraph.basic.tick;fillColor=#60a917;fontColor=#ffffff;strokeColor=#2D7600;" parent="1" vertex="1">
          <mxGeometry x="1400" y="120" width="20" height="20" as="geometry" />
        </mxCell>
        <mxCell id="CZ2TSmDoHZK354zX8ozz-189" value="" style="verticalLabelPosition=bottom;verticalAlign=top;html=1;shape=mxgraph.basic.frame_corner;dx=10;whiteSpace=wrap;" parent="1" vertex="1">
          <mxGeometry x="-10" y="-225" width="100" height="60" as="geometry" />
        </mxCell>
        <mxCell id="CZ2TSmDoHZK354zX8ozz-190" value="" style="verticalLabelPosition=bottom;verticalAlign=top;html=1;shape=mxgraph.basic.frame_corner;dx=10;whiteSpace=wrap;direction=west;" parent="1" vertex="1">
          <mxGeometry x="170" y="250" width="100" height="60" as="geometry" />
        </mxCell>
        <mxCell id="CZ2TSmDoHZK354zX8ozz-210" value="" style="verticalLabelPosition=bottom;verticalAlign=top;html=1;shape=mxgraph.basic.patternFillRect;fillStyle=diag;step=5;fillStrokeWidth=0.2;fillStrokeColor=#dddddd;fillColor=#e1d5e7;strokeColor=#9673a6;" parent="1" vertex="1">
          <mxGeometry x="1920" y="-260" width="300" height="550" as="geometry" />
        </mxCell>
        <mxCell id="CZ2TSmDoHZK354zX8ozz-211" value="&lt;span style=&quot;color: rgba(0, 0, 0, 0); font-family: monospace; font-size: 0px; text-align: start;&quot;&gt;%3CmxGraphModel%3E%3Croot%3E%3CmxCell%20id%3D%220%22%2F%3E%3CmxCell%20id%3D%221%22%20parent%3D%220%22%2F%3E%3CmxCell%20id%3D%222%22%20value%3D%22busca%22%20style%3D%22text%3BstrokeColor%3Dnone%3BfillColor%3Dnone%3Bhtml%3D1%3BfontSize%3D24%3BfontStyle%3D1%3BverticalAlign%3Dmiddle%3Balign%3Dcenter%3B%22%20vertex%3D%221%22%20parent%3D%221%22%3E%3CmxGeometry%20x%3D%222000%22%20y%3D%22-250%22%20width%3D%22100%22%20height%3D%2240%22%20as%3D%22geometry%22%2F%3E%3C%2FmxCell%3E%3C%2Froot%3E%3C%2FmxGraphModel%3E&lt;/span&gt;" style="verticalLabelPosition=bottom;verticalAlign=top;html=1;shape=mxgraph.basic.rect;fillColor2=none;strokeWidth=1;size=20;indent=5;" parent="1" vertex="1">
          <mxGeometry x="1930" y="-40" width="220" height="30" as="geometry" />
        </mxCell>
        <mxCell id="CZ2TSmDoHZK354zX8ozz-212" value="" style="verticalLabelPosition=bottom;verticalAlign=top;html=1;shape=mxgraph.basic.rect;fillColor2=none;strokeWidth=1;size=20;indent=5;fillColor=#ffcccc;strokeColor=#36393d;" parent="1" vertex="1">
          <mxGeometry x="1930" y="-50" width="220" height="10" as="geometry" />
        </mxCell>
        <mxCell id="CZ2TSmDoHZK354zX8ozz-213" value="nome/ razÃ£o social" style="text;strokeColor=none;fillColor=none;html=1;fontSize=24;fontStyle=1;verticalAlign=middle;align=center;" parent="1" vertex="1">
          <mxGeometry x="1990" y="-45" width="100" height="40" as="geometry" />
        </mxCell>
        <mxCell id="CZ2TSmDoHZK354zX8ozz-214" value="&lt;span style=&quot;color: rgba(0, 0, 0, 0); font-family: monospace; font-size: 0px; text-align: start;&quot;&gt;%3CmxGraphModel%3E%3Croot%3E%3CmxCell%20id%3D%220%22%2F%3E%3CmxCell%20id%3D%221%22%20parent%3D%220%22%2F%3E%3CmxCell%20id%3D%222%22%20value%3D%22busca%22%20style%3D%22text%3BstrokeColor%3Dnone%3BfillColor%3Dnone%3Bhtml%3D1%3BfontSize%3D24%3BfontStyle%3D1%3BverticalAlign%3Dmiddle%3Balign%3Dcenter%3B%22%20vertex%3D%221%22%20parent%3D%221%22%3E%3CmxGeometry%20x%3D%222000%22%20y%3D%22-250%22%20width%3D%22100%22%20height%3D%2240%22%20as%3D%22geometry%22%2F%3E%3C%2FmxCell%3E%3C%2Froot%3E%3C%2FmxGraphModel%3E&lt;/span&gt;" style="verticalLabelPosition=bottom;verticalAlign=top;html=1;shape=mxgraph.basic.rect;fillColor2=none;strokeWidth=1;size=20;indent=5;" parent="1" vertex="1">
          <mxGeometry x="1930" y="20" width="220" height="30" as="geometry" />
        </mxCell>
        <mxCell id="CZ2TSmDoHZK354zX8ozz-215" value="" style="verticalLabelPosition=bottom;verticalAlign=top;html=1;shape=mxgraph.basic.rect;fillColor2=none;strokeWidth=1;size=20;indent=5;fillColor=#ffcccc;strokeColor=#36393d;" parent="1" vertex="1">
          <mxGeometry x="1930" y="10" width="220" height="10" as="geometry" />
        </mxCell>
        <mxCell id="CZ2TSmDoHZK354zX8ozz-216" value="cpf/cnpj" style="text;strokeColor=none;fillColor=none;html=1;fontSize=24;fontStyle=1;verticalAlign=middle;align=center;" parent="1" vertex="1">
          <mxGeometry x="1930" y="15" width="100" height="40" as="geometry" />
        </mxCell>
        <mxCell id="CZ2TSmDoHZK354zX8ozz-217" value="&lt;span style=&quot;color: rgba(0, 0, 0, 0); font-family: monospace; font-size: 0px; text-align: start;&quot;&gt;%3CmxGraphModel%3E%3Croot%3E%3CmxCell%20id%3D%220%22%2F%3E%3CmxCell%20id%3D%221%22%20parent%3D%220%22%2F%3E%3CmxCell%20id%3D%222%22%20value%3D%22busca%22%20style%3D%22text%3BstrokeColor%3Dnone%3BfillColor%3Dnone%3Bhtml%3D1%3BfontSize%3D24%3BfontStyle%3D1%3BverticalAlign%3Dmiddle%3Balign%3Dcenter%3B%22%20vertex%3D%221%22%20parent%3D%221%22%3E%3CmxGeometry%20x%3D%222000%22%20y%3D%22-250%22%20width%3D%22100%22%20height%3D%2240%22%20as%3D%22geometry%22%2F%3E%3C%2FmxCell%3E%3C%2Froot%3E%3C%2FmxGraphModel%3E&lt;/span&gt;" style="verticalLabelPosition=bottom;verticalAlign=top;html=1;shape=mxgraph.basic.rect;fillColor2=none;strokeWidth=1;size=20;indent=5;" parent="1" vertex="1">
          <mxGeometry x="1930" y="80" width="220" height="30" as="geometry" />
        </mxCell>
        <mxCell id="CZ2TSmDoHZK354zX8ozz-218" value="&lt;span style=&quot;color: rgba(0, 0, 0, 0); font-family: monospace; font-size: 0px; text-align: start;&quot;&gt;%3CmxGraphModel%3E%3Croot%3E%3CmxCell%20id%3D%220%22%2F%3E%3CmxCell%20id%3D%221%22%20parent%3D%220%22%2F%3E%3CmxCell%20id%3D%222%22%20value%3D%22busca%22%20style%3D%22text%3BstrokeColor%3Dnone%3BfillColor%3Dnone%3Bhtml%3D1%3BfontSize%3D24%3BfontStyle%3D1%3BverticalAlign%3Dmiddle%3Balign%3Dcenter%3B%22%20vertex%3D%221%22%20parent%3D%221%22%3E%3CmxGeometry%20x%3D%222000%22%20y%3D%22-250%22%20width%3D%22100%22%20height%3D%2240%22%20as%3D%22geometry%22%2F%3E%3C%2FmxCell%3E%3C%2Froot%3E%3C%2FmxGraphModel%3E&lt;/span&gt;" style="verticalLabelPosition=bottom;verticalAlign=top;html=1;shape=mxgraph.basic.rect;fillColor2=none;strokeWidth=1;size=20;indent=5;fillColor=#ffcccc;strokeColor=#36393d;" parent="1" vertex="1">
          <mxGeometry x="1930" y="-150" width="220" height="30" as="geometry" />
        </mxCell>
        <mxCell id="CZ2TSmDoHZK354zX8ozz-219" value="" style="verticalLabelPosition=bottom;verticalAlign=top;html=1;shape=mxgraph.basic.rect;fillColor2=none;strokeWidth=1;size=20;indent=5;fillColor=#ffcccc;strokeColor=#36393d;" parent="1" vertex="1">
          <mxGeometry x="1930" y="70" width="220" height="10" as="geometry" />
        </mxCell>
        <mxCell id="CZ2TSmDoHZK354zX8ozz-220" value="codigo&amp;nbsp;" style="text;strokeColor=none;fillColor=none;html=1;fontSize=24;fontStyle=1;verticalAlign=middle;align=center;" parent="1" vertex="1">
          <mxGeometry x="1930" y="75" width="100" height="40" as="geometry" />
        </mxCell>
        <mxCell id="CZ2TSmDoHZK354zX8ozz-221" value="tipo requerido" style="text;strokeColor=none;fillColor=none;html=1;fontSize=24;fontStyle=1;verticalAlign=middle;align=center;" parent="1" vertex="1">
          <mxGeometry x="1970" y="-155" width="100" height="40" as="geometry" />
        </mxCell>
        <mxCell id="CZ2TSmDoHZK354zX8ozz-222" value="" style="html=1;shadow=0;dashed=0;align=center;verticalAlign=middle;shape=mxgraph.arrows2.arrow;dy=0;dx=10;notch=0;fillColor=#eeeeee;strokeColor=#36393d;" parent="1" vertex="1">
          <mxGeometry x="1930" y="-90" width="230" height="30" as="geometry" />
        </mxCell>
        <mxCell id="CZ2TSmDoHZK354zX8ozz-223" value="" style="html=1;shadow=0;dashed=0;align=center;verticalAlign=middle;shape=mxgraph.arrows2.arrow;dy=0;dx=10;notch=0;fillColor=#eeeeee;strokeColor=#36393d;" parent="1" vertex="1">
          <mxGeometry x="1930" y="-120" width="230" height="30" as="geometry" />
        </mxCell>
        <mxCell id="CZ2TSmDoHZK354zX8ozz-224" value="item 2" style="text;strokeColor=none;fillColor=none;html=1;fontSize=24;fontStyle=1;verticalAlign=middle;align=center;" parent="1" vertex="1">
          <mxGeometry x="1930" y="-125" width="100" height="40" as="geometry" />
        </mxCell>
        <mxCell id="CZ2TSmDoHZK354zX8ozz-225" value="item 1" style="text;strokeColor=none;fillColor=none;html=1;fontSize=24;fontStyle=1;verticalAlign=middle;align=center;" parent="1" vertex="1">
          <mxGeometry x="1930" y="-95" width="100" height="40" as="geometry" />
        </mxCell>
        <mxCell id="CZ2TSmDoHZK354zX8ozz-226" value="" style="shape=loopLimit;whiteSpace=wrap;html=1;direction=west;" parent="1" vertex="1">
          <mxGeometry x="1930" y="-260" width="280" height="60" as="geometry" />
        </mxCell>
        <mxCell id="CZ2TSmDoHZK354zX8ozz-227" value="" style="shape=loopLimit;whiteSpace=wrap;html=1;direction=west;" parent="1" vertex="1">
          <mxGeometry x="1920" y="-260" width="300" height="60" as="geometry" />
        </mxCell>
        <mxCell id="CZ2TSmDoHZK354zX8ozz-228" value="" style="shape=loopLimit;whiteSpace=wrap;html=1;direction=west;" parent="1" vertex="1">
          <mxGeometry x="1930" y="-260" width="280" height="60" as="geometry" />
        </mxCell>
        <mxCell id="CZ2TSmDoHZK354zX8ozz-229" value="busca" style="text;strokeColor=none;fillColor=none;html=1;fontSize=24;fontStyle=1;verticalAlign=middle;align=center;" parent="1" vertex="1">
          <mxGeometry x="2018" y="-250" width="100" height="40" as="geometry" />
        </mxCell>
        <mxCell id="CZ2TSmDoHZK354zX8ozz-230" value="" style="shape=waypoint;sketch=0;fillStyle=solid;size=6;pointerEvents=1;points=[];fillColor=none;resizable=0;rotatable=0;perimeter=centerPerimeter;snapToPoint=1;" parent="1" vertex="1">
          <mxGeometry x="2130" y="-115" width="20" height="20" as="geometry" />
        </mxCell>
        <mxCell id="CZ2TSmDoHZK354zX8ozz-231" value="" style="shape=waypoint;sketch=0;fillStyle=solid;size=6;pointerEvents=1;points=[];fillColor=none;resizable=0;rotatable=0;perimeter=centerPerimeter;snapToPoint=1;" parent="1" vertex="1">
          <mxGeometry x="2130" y="-85" width="20" height="20" as="geometry" />
        </mxCell>
        <mxCell id="CZ2TSmDoHZK354zX8ozz-232" value="" style="rounded=0;whiteSpace=wrap;html=1;" parent="1" vertex="1">
          <mxGeometry x="2160" y="80" width="30" height="30" as="geometry" />
        </mxCell>
        <mxCell id="CZ2TSmDoHZK354zX8ozz-233" value="" style="rounded=0;whiteSpace=wrap;html=1;" parent="1" vertex="1">
          <mxGeometry x="2160" y="20" width="30" height="30" as="geometry" />
        </mxCell>
        <mxCell id="CZ2TSmDoHZK354zX8ozz-234" value="" style="rounded=0;whiteSpace=wrap;html=1;" parent="1" vertex="1">
          <mxGeometry x="2160" y="-40" width="30" height="30" as="geometry" />
        </mxCell>
        <mxCell id="CZ2TSmDoHZK354zX8ozz-235" value="" style="ellipse;shape=doubleEllipse;whiteSpace=wrap;html=1;aspect=fixed;" parent="1" vertex="1">
          <mxGeometry x="2176" y="-36" width="10" height="10" as="geometry" />
        </mxCell>
        <mxCell id="CZ2TSmDoHZK354zX8ozz-237" value="" style="endArrow=none;html=1;rounded=0;" parent="1" edge="1">
          <mxGeometry width="50" height="50" relative="1" as="geometry">
            <mxPoint x="2167" y="-17" as="sourcePoint" />
            <mxPoint x="2177" y="-27" as="targetPoint" />
          </mxGeometry>
        </mxCell>
        <mxCell id="CZ2TSmDoHZK354zX8ozz-238" value="" style="ellipse;shape=doubleEllipse;whiteSpace=wrap;html=1;aspect=fixed;" parent="1" vertex="1">
          <mxGeometry x="2176" y="25" width="10" height="10" as="geometry" />
        </mxCell>
        <mxCell id="CZ2TSmDoHZK354zX8ozz-239" value="" style="endArrow=none;html=1;rounded=0;" parent="1" edge="1">
          <mxGeometry width="50" height="50" relative="1" as="geometry">
            <mxPoint x="2167" y="43" as="sourcePoint" />
            <mxPoint x="2177" y="33" as="targetPoint" />
          </mxGeometry>
        </mxCell>
        <mxCell id="CZ2TSmDoHZK354zX8ozz-240" value="" style="endArrow=none;html=1;rounded=0;" parent="1" edge="1">
          <mxGeometry width="50" height="50" relative="1" as="geometry">
            <mxPoint x="2167" y="103" as="sourcePoint" />
            <mxPoint x="2177" y="93" as="targetPoint" />
          </mxGeometry>
        </mxCell>
        <mxCell id="CZ2TSmDoHZK354zX8ozz-241" value="" style="ellipse;shape=doubleEllipse;whiteSpace=wrap;html=1;aspect=fixed;" parent="1" vertex="1">
          <mxGeometry x="2176" y="85" width="10" height="10" as="geometry" />
        </mxCell>
      </root>
    </mxGraphModel>
  </diagram>
</mxfile>
